<svg xmlns="http://www.w3.org/2000/svg" viewBox="0 0 52 52"><defs><style>.cls-1{fill:#a4a4a4;}.cls-2,.cls-4{fill:none;}.cls-2,.cls-3,.cls-4,.cls-5{stroke:#000;}.cls-2,.cls-3,.cls-4{stroke-linecap:round;}.cls-2,.cls-3,.cls-5{stroke-miterlimit:10;}.cls-2,.cls-3{stroke-width:2px;}.cls-3{fill:#fff;}.cls-4{stroke-linejoin:round;}</style></defs><title>Custom</title><g id="Layer_2" data-name="Layer 2"><g id="Layer_1-2" data-name="Layer 1"><rect class="cls-1" width="52" height="52" rx="9.961"/><path class="cls-2" d="M6,26h7.5"/><path class="cls-2" d="M6,17.25h7.5"/><path class="cls-2" d="M6,34.75h7.5"/><path class="cls-2" d="M38.5,26H46"/><path class="cls-3" d="M38,8.5H14a.5.5,0,0,0-.5.5V43a.5.5,0,0,0,.5.5H38a.5.5,0,0,0,.5-.5V9A.5.5,0,0,0,38,8.5Z"/><path class="cls-4" d="M35,20.62a3.481,3.481,0,0,1-3.47,3.49,3.423,3.423,0,0,1-1.16-.2L19,35.27l-2.12-2.12L28.25,21.78a3.322,3.322,0,0,1-.21-1.18,3.44,3.44,0,0,1,5.07-3.08L30.42,20.2l1.49,1.49,2.68-2.68A3.517,3.517,0,0,1,35,20.62Z"/><path class="cls-5" d="M35.584,33.508,34.17,34.922a.5.5,0,0,1-.708,0L22.439,23.9l2.121-2.121L35.584,32.8a.5.5,0,0,1,0,.707Z"/><path class="cls-4" d="M26.03,17.6a3,3,0,0,0-4.24,0h0l-3.53,3.53,3.53,3.53,3.53-3.53-1.41-1.41Z"/><path class="cls-4" d="M19.68,22.55H16.85l-.71.71,3.54,3.54.71-.71V23.26Z"/></g></g></svg>