<svg width="42" height="37" viewBox="0 0 42 37" fill="none" xmlns="http://www.w3.org/2000/svg">
<path d="M1 18.5H8.5" stroke="#231F20" stroke-width="2" stroke-miterlimit="10" stroke-linecap="round"/>
<path d="M1 9.75H8.5" stroke="#231F20" stroke-width="2" stroke-miterlimit="10" stroke-linecap="round"/>
<path d="M1 27.25H8.5" stroke="#231F20" stroke-width="2" stroke-miterlimit="10" stroke-linecap="round"/>
<path d="M33.5 18.5H41" stroke="#231F20" stroke-width="2" stroke-miterlimit="10" stroke-linecap="round"/>
<path d="M33 1H9C8.72386 1 8.5 1.22386 8.5 1.5V35.5C8.5 35.7761 8.72386 36 9 36H33C33.2761 36 33.5 35.7761 33.5 35.5V1.5C33.5 1.22386 33.2761 1 33 1Z" stroke="#231F20" stroke-width="2" stroke-miterlimit="10" stroke-linecap="round"/>
<path d="M30 13.12C30.0013 13.577 29.9126 14.0298 29.7389 14.4525C29.5653 14.8752 29.31 15.2596 28.9878 15.5837C28.6656 15.9078 28.2827 16.1652 27.861 16.3413C27.4393 16.5174 26.987 16.6087 26.53 16.61C26.1347 16.6111 25.7422 16.5434 25.37 16.41L14 27.77L11.88 25.65L23.25 14.28C23.1092 13.9026 23.0381 13.5028 23.04 13.1C23.0311 12.5006 23.1791 11.9093 23.4691 11.3847C23.7591 10.86 24.1813 10.4203 24.6936 10.1091C25.2059 9.79786 25.7907 9.6259 26.39 9.61027C26.9892 9.59464 27.5822 9.73589 28.11 10.02L25.42 12.7L26.91 14.19L29.59 11.51C29.8532 12.0063 29.9938 12.5583 30 13.12Z" stroke="#231F20" stroke-linecap="round" stroke-linejoin="round"/>
<path d="M30.5838 26.0077L29.1696 27.4219C29.0758 27.5157 28.9487 27.5683 28.8161 27.5683C28.6834 27.5683 28.5563 27.5157 28.4625 27.4219L17.4387 16.3981L19.56 14.2768L30.5838 25.3006C30.6776 25.3943 30.7303 25.5215 30.7303 25.6541C30.7303 25.7867 30.6776 25.9139 30.5838 26.0077Z" fill="#231F20"/>
<path d="M21.03 10.1C20.4675 9.5382 19.705 9.22264 18.91 9.22264C18.115 9.22264 17.3525 9.5382 16.79 10.1V10.1L13.26 13.63L16.79 17.16L20.32 13.63L18.91 12.22L21.03 10.1Z" stroke="#231F20" stroke-linecap="round" stroke-linejoin="round"/>
<path d="M14.68 15.05H11.85L11.14 15.76L14.68 19.3L15.39 18.59V15.76L14.68 15.05Z" stroke="#231F20" stroke-linecap="round" stroke-linejoin="round"/>
</svg>
