<svg width="43" height="45" viewBox="0 0 43 45" fill="none" xmlns="http://www.w3.org/2000/svg">
<path d="M10.93 17.52H16.61" stroke="#231F20" stroke-width="2" stroke-miterlimit="10" stroke-linecap="round"/>
<path d="M10.93 10.79H16.61" stroke="#231F20" stroke-width="2" stroke-miterlimit="10" stroke-linecap="round"/>
<path d="M10.93 24.25H16.61" stroke="#231F20" stroke-width="2" stroke-miterlimit="10" stroke-linecap="round"/>
<path d="M35.52 17.52H41.2" stroke="#231F20" stroke-width="2" stroke-miterlimit="10" stroke-linecap="round"/>
<path d="M35.02 4.06H17.11C16.8338 4.06 16.61 4.28386 16.61 4.56V30.48C16.61 30.7561 16.8338 30.98 17.11 30.98H35.02C35.2961 30.98 35.52 30.7561 35.52 30.48V4.56C35.52 4.28386 35.2961 4.06 35.02 4.06Z" fill="white" stroke="#231F20" stroke-width="2" stroke-miterlimit="10" stroke-linecap="round"/>
<path d="M1.28998 19.23H6.61998" stroke="#231F20" stroke-width="2" stroke-miterlimit="10" stroke-linecap="round"/>
<path d="M24.4 22.15H29.73" stroke="#231F20" stroke-width="2" stroke-miterlimit="10" stroke-linecap="round"/>
<path d="M1.28998 26.34H6.61998" stroke="#231F20" stroke-width="2" stroke-miterlimit="10" stroke-linecap="round"/>
<path d="M24.38 22.6C24.221 24.4371 23.3727 26.1459 22.0056 27.3832C20.6384 28.6205 18.8537 29.2946 17.01 29.27H6.65997V15.08H17.28C18.2484 15.0798 19.2066 15.2773 20.0959 15.6606C20.9852 16.0439 21.7868 16.6048 22.4516 17.3089C23.1164 18.013 23.6304 18.8456 23.962 19.7554C24.2936 20.6653 24.4358 21.6333 24.38 22.6Z" fill="white" stroke="#231F20" stroke-width="2" stroke-miterlimit="10"/>
<path d="M21.18 28.14V34.89H11.18V28.14C11.18 26.8139 11.7068 25.5422 12.6445 24.6045C13.5821 23.6668 14.8539 23.14 16.18 23.14C17.5061 23.14 18.7778 23.6668 19.7155 24.6045C20.6532 25.5422 21.18 26.8139 21.18 28.14Z" fill="white" stroke="#231F20" stroke-width="2" stroke-miterlimit="10"/>
<path d="M13.68 38.39V36.14" stroke="#231F20" stroke-width="2" stroke-miterlimit="10"/>
<path d="M13.68 43.64V41.39" stroke="#231F20" stroke-width="2" stroke-miterlimit="10" stroke-linecap="round"/>
<path d="M18.68 38.39V36.14" stroke="#231F20" stroke-width="2" stroke-miterlimit="10"/>
<path d="M18.68 43.64V41.39" stroke="#231F20" stroke-width="2" stroke-miterlimit="10" stroke-linecap="round"/>
<path d="M15.93 31.14H16.43C16.6952 31.14 16.9496 31.2454 17.1371 31.4329C17.3246 31.6204 17.43 31.8748 17.43 32.14V33.64H14.93V32.14C14.93 31.8748 15.0353 31.6204 15.2229 31.4329C15.4104 31.2454 15.6648 31.14 15.93 31.14Z" fill="#231F20" stroke="#231F20" stroke-miterlimit="10"/>
<path d="M14.18 38.39H13.18C12.9039 38.39 12.68 38.6139 12.68 38.89V40.89C12.68 41.1661 12.9039 41.39 13.18 41.39H14.18C14.4561 41.39 14.68 41.1661 14.68 40.89V38.89C14.68 38.6139 14.4561 38.39 14.18 38.39Z" fill="#231F20" stroke="#231F20" stroke-miterlimit="10"/>
<path d="M19.18 38.39H18.18C17.9039 38.39 17.68 38.6139 17.68 38.89V40.89C17.68 41.1661 17.9039 41.39 18.18 41.39H19.18C19.4561 41.39 19.68 41.1661 19.68 40.89V38.89C19.68 38.6139 19.4561 38.39 19.18 38.39Z" fill="#231F20" stroke="#231F20" stroke-miterlimit="10"/>
<path d="M21.43 33.64H10.93C10.3777 33.64 9.92999 34.0877 9.92999 34.64V35.14C9.92999 35.6923 10.3777 36.14 10.93 36.14H21.43C21.9823 36.14 22.43 35.6923 22.43 35.14V34.64C22.43 34.0877 21.9823 33.64 21.43 33.64Z" fill="#231F20" stroke="#231F20" stroke-miterlimit="10"/>
<path d="M33.58 31.51V36.78H25.78V31.51C25.878 30.5438 26.3312 29.6483 27.0517 28.9972C27.7722 28.346 28.7089 27.9855 29.68 27.9855C30.6512 27.9855 31.5878 28.346 32.3083 28.9972C33.0289 29.6483 33.4821 30.5438 33.58 31.51Z" fill="white" stroke="#231F20" stroke-width="2" stroke-miterlimit="10"/>
<path d="M27.69 39.51V37.75" stroke="#231F20" stroke-width="2" stroke-miterlimit="10"/>
<path d="M27.69 43.6V41.85" stroke="#231F20" stroke-width="2" stroke-miterlimit="10" stroke-linecap="round"/>
<path d="M31.59 39.51V37.75" stroke="#231F20" stroke-width="2" stroke-miterlimit="10"/>
<path d="M31.59 43.6V41.85" stroke="#231F20" stroke-width="2" stroke-miterlimit="10" stroke-linecap="round"/>
<path d="M29.64 33.85C29.9052 33.85 30.1596 33.9554 30.3471 34.1429C30.5347 34.3304 30.64 34.5848 30.64 34.85V35.85H28.64V34.85C28.64 34.5848 28.7454 34.3304 28.9329 34.1429C29.1204 33.9554 29.3748 33.85 29.64 33.85Z" fill="#231F20" stroke="#231F20" stroke-miterlimit="10"/>
<path d="M28.08 39.51H27.3C27.0846 39.51 26.91 39.6846 26.91 39.9V41.46C26.91 41.6754 27.0846 41.85 27.3 41.85H28.08C28.2954 41.85 28.47 41.6754 28.47 41.46V39.9C28.47 39.6846 28.2954 39.51 28.08 39.51Z" fill="#231F20" stroke="#231F20" stroke-miterlimit="10"/>
<path d="M31.98 39.51H31.2C30.9846 39.51 30.81 39.6846 30.81 39.9V41.46C30.81 41.6754 30.9846 41.85 31.2 41.85H31.98C32.1954 41.85 32.37 41.6754 32.37 41.46V39.9C32.37 39.6846 32.1954 39.51 31.98 39.51Z" fill="#231F20" stroke="#231F20" stroke-miterlimit="10"/>
<path d="M33.54 35.8H25.73C25.1943 35.8 24.76 36.2343 24.76 36.77V36.78C24.76 37.3157 25.1943 37.75 25.73 37.75H33.54C34.0757 37.75 34.51 37.3157 34.51 36.78V36.77C34.51 36.2343 34.0757 35.8 33.54 35.8Z" fill="#231F20" stroke="#231F20" stroke-miterlimit="10"/>
<path d="M7.38281 12H1.55859V10.4766H3.39844V5.86523H1.55859V4.44141C1.83984 4.44141 2.10938 4.42578 2.36719 4.39453C2.625 4.35938 2.83984 4.30078 3.01172 4.21875C3.21484 4.12109 3.36719 3.99414 3.46875 3.83789C3.57031 3.68164 3.62891 3.48633 3.64453 3.25195H5.58398V10.4766H7.38281V12Z" fill="#231F20"/>
</svg>
