<svg width="27" height="42" viewBox="0 0 27 42" fill="none" xmlns="http://www.w3.org/2000/svg">
<path d="M23.5 10V23.5H3.5V10C3.5 5 7.98 1 13.5 1C19.02 1 23.5 5.03 23.5 10Z" fill="white" stroke="#231F20" stroke-width="2" stroke-miterlimit="10"/>
<path d="M8.5 30.49V25.99" stroke="#231F20" stroke-width="2" stroke-miterlimit="10"/>
<path d="M8.5 40.99V36.49" stroke="#231F20" stroke-width="2" stroke-miterlimit="10" stroke-linecap="round"/>
<path d="M18.5 30.49V25.99" stroke="#231F20" stroke-width="2" stroke-miterlimit="10"/>
<path d="M18.5 40.99V36.49" stroke="#231F20" stroke-width="2" stroke-miterlimit="10" stroke-linecap="round"/>
<path d="M12 16H15C15.2652 16 15.5196 16.1054 15.7071 16.2929C15.8946 16.4804 16 16.7348 16 17V21H11V17C11 16.7348 11.1054 16.4804 11.2929 16.2929C11.4804 16.1054 11.7348 16 12 16Z" fill="white" stroke="#231F20" stroke-miterlimit="10"/>
<path d="M10.5 31.5V35.5C10.5 35.7652 10.3946 36.0196 10.2071 36.2071C10.0196 36.3946 9.76522 36.5 9.5 36.5H7.5C7.23478 36.5 6.98043 36.3946 6.79289 36.2071C6.60536 36.0196 6.5 35.7652 6.5 35.5V31.5C6.5 31.2348 6.60536 30.9804 6.79289 30.7929C6.98043 30.6054 7.23478 30.5 7.5 30.5H9.5C9.76522 30.5 10.0196 30.6054 10.2071 30.7929C10.3946 30.9804 10.5 31.2348 10.5 31.5Z" fill="white" stroke="#231F20" stroke-miterlimit="10"/>
<path d="M20.5 31.5V35.5C20.5 35.7652 20.3946 36.0196 20.2071 36.2071C20.0196 36.3946 19.7652 36.5 19.5 36.5H17.5C17.2348 36.5 16.9804 36.3946 16.7929 36.2071C16.6054 36.0196 16.5 35.7652 16.5 35.5V31.5C16.5 31.2348 16.6054 30.9804 16.7929 30.7929C16.9804 30.6054 17.2348 30.5 17.5 30.5H19.5C19.7652 30.5 20.0196 30.6054 20.2071 30.7929C20.3946 30.9804 20.5 31.2348 20.5 31.5Z" fill="white" stroke="#231F20" stroke-miterlimit="10"/>
<path d="M25 20.99H2C1.44772 20.99 1 21.4377 1 21.99V24.99C1 25.5423 1.44772 25.99 2 25.99H25C25.5523 25.99 26 25.5423 26 24.99V21.99C26 21.4377 25.5523 20.99 25 20.99Z" fill="white" stroke="#231F20" stroke-miterlimit="10"/>
</svg>
