<svg xmlns="http://www.w3.org/2000/svg" viewBox="0 0 52 52"><defs><style>.cls-1,.cls-3,.cls-4{fill:none;}.cls-2,.cls-5{fill:#fff;}.cls-2,.cls-3,.cls-4,.cls-5{stroke:#000;stroke-miterlimit:10;}.cls-2,.cls-3,.cls-4{stroke-width:2px;}.cls-4{stroke-linecap:round;}</style></defs><title>Displays</title><g id="Layer_2" data-name="Layer 2"><g id="Layer_1-2" data-name="Layer 1"><rect class="cls-1" width="52" height="52" rx="9.961"/><path class="cls-2" d="M36,15.005v13.5H16v-13.5c0-5,4.48-9,10-9S36,10.035,36,15.005Z"/><path class="cls-3" d="M21,35.495V31"/><path class="cls-4" d="M21,46V41.5"/><path class="cls-3" d="M31,35.495V31"/><path class="cls-4" d="M31,46V41.5"/><path class="cls-5" d="M24.5,21.005h3a1,1,0,0,1,1,1v4h-5v-4a1,1,0,0,1,1-1Z"/><path class="cls-5" d="M23,36.505v4a1,1,0,0,1-1,1H20a1,1,0,0,1-1-1v-4a1,1,0,0,1,1-1h2a1,1,0,0,1,1,1Z"/><path class="cls-5" d="M33,36.505v4a1,1,0,0,1-1,1H30a1,1,0,0,1-1-1v-4a1,1,0,0,1,1-1h2a1,1,0,0,1,1,1Z"/><path class="cls-5" d="M37.5,26h-23a1,1,0,0,0-1,1v3a1,1,0,0,0,1,1h23a1,1,0,0,0,1-1V27A1,1,0,0,0,37.5,26Z"/></g></g></svg>