<svg width="42" height="22" viewBox="0 0 42 22" fill="none" xmlns="http://www.w3.org/2000/svg">
<path d="M33.5 10.9567H41" stroke="#231F20" stroke-width="2" stroke-miterlimit="10" stroke-linecap="round"/>
<path d="M1 16.8367H8.5" stroke="#231F20" stroke-width="2" stroke-miterlimit="10" stroke-linecap="round"/>
<path d="M1 6.8367H8.5" stroke="#231F20" stroke-width="2" stroke-miterlimit="10" stroke-linecap="round"/>
<path d="M33.48 11.5867C33.2576 14.1707 32.064 16.5744 30.1396 18.3132C28.2152 20.052 25.7033 20.9966 23.11 20.9567H8.54999L8.5 20.9067V1.0067C8.5076 1.00231 8.51622 1 8.52499 1C8.53377 1 8.54239 1.00231 8.54999 1.0067H23.5C24.8618 1.00713 26.2092 1.28571 27.4595 1.82534C28.7098 2.36497 29.8367 3.1543 30.7711 4.14491C31.7056 5.13553 32.4279 6.30656 32.8937 7.58622C33.3595 8.86588 33.559 10.2272 33.48 11.5867Z" fill="white" stroke="#231F20" stroke-width="2" stroke-miterlimit="10"/>
</svg>
