<svg xmlns="http://www.w3.org/2000/svg" viewBox="0 0 287.935 136.318"><defs><style>.cls-1,.cls-3{fill:#fff;}.cls-2{fill:none;}.cls-2,.cls-3{stroke:#231f20;stroke-miterlimit:10;stroke-width:5px;}</style></defs><title>XNOR</title><g id="Layer_2" data-name="Layer 2"><g id="Gates"><g id="XOR_Gates" data-name="XOR Gates"><g id="XNOR"><path class="cls-1" d="M212.935,68.159c-27.775,64.636-93.208,65.659-93.208,65.659H56.389c18.258-21.6,24.79-47.557,24.79-65.659S74.647,24.1,56.389,2.5h63.338s65.433,1.023,93.208,65.659"/><path class="cls-2" d="M212.935,68.159c-27.775,64.636-93.208,65.659-93.208,65.659H56.389c18.258-21.6,24.79-47.557,24.79-65.659S74.647,24.1,56.389,2.5h63.338s65.433,1.023,93.208,65.659"/><line class="cls-2" x1="212.935" y1="68.159" x2="287.935" y2="68.159"/><line class="cls-2" y1="34.852" x2="75" y2="34.852"/><line class="cls-2" y1="101.465" x2="75" y2="101.465"/><path class="cls-2" d="M37.5,133.818c18.258-21.6,24.79-47.557,24.79-65.659S55.758,24.1,37.5,2.5"/><circle class="cls-3" cx="225.377" cy="68.159" r="10"/></g></g></g></g></svg>